<svg xmlns="http://www.w3.org/2000/svg" viewBox="0 0 655 655"><defs><style>.cls-1{fill:#c4bcb8;}.cls-2{fill:#ba0934;}.cls-3{fill:#824319;}.cls-4{fill:#a05e2d;}.cls-5{fill:#fff;}.cls-6{fill:#ff2c41;}.cls-7{fill:#f41132;}.cls-8{fill:#ddd2ce;}.cls-9{fill:#724120;}.cls-10{fill:#9b5b2f;}.cls-11{fill:#502a1c;}.cls-12{fill:#b7b7b7;}.cls-13{fill:#5b0c1d;}.cls-14{fill:#fdddc3;}.cls-15{fill:#161616;}.cls-16{fill:#ca2030;}.cls-17{fill:#c1c3e7;}.cls-18{fill:#543428;}.cls-19{fill:#f0d1b9;}.cls-20{fill:#bbcbd3;}.cls-21{fill:#f7bea8;}.cls-22{fill:#f28054;}.cls-23{fill:#f5a07f;}.cls-24{fill:none;stroke:#19161f;stroke-linecap:round;stroke-linejoin:round;stroke-width:5.87px;}.cls-25{fill:#9b9998;}.cls-26{fill:#e20e2d;}.cls-27{fill:#ccc;}.cls-28{fill:#ff4560;}.cls-29{fill:#d3d3d3;}.cls-30{fill:#bfbfbf;}</style></defs><g id="Layer_9" data-name="Layer 9"><polygon class="cls-1" points="369.51 153.66 358.13 106.52 228.96 21.75 241.3 134.2 254.02 181.72 369.51 153.66"/><polygon class="cls-2" points="228.96 21.75 113.33 170.44 123.82 208.39 244.17 184.49 242.76 144.45 228.96 21.75"/><polygon class="cls-2" points="228.96 21.75 350.04 96.96 379.79 150.07 459.65 127.75 440.04 84.71 228.96 21.75"/><path class="cls-1" d="M500.51,76.28l18.55,28.25L472.13,123.6c-10.44-9.85-27.41-39.53-27.41-39.53S278.52,43.13,229,21.75Z"/><polygon class="cls-1" points="33.96 200.23 32.65 227.04 113.8 213.53 111.08 184.56 228.96 21.75 33.96 200.23"/><path class="cls-3" d="M237,24.12c-.32-1.49-2.53-2.27-4.94-1.75s-4.11,2.14-3.79,3.62l42.22,196.37q4-2.64,8-5.2Z"/><path class="cls-4" d="M335.27,464.16l-56.78-247q-4,2.57-8,5.2l56,243.5A14.79,14.79,0,0,1,335.27,464.16Z"/><polygon class="cls-5" points="145.57 154.49 217.86 126.57 350.04 96.96 444.72 84.07 500.51 76.28 228.96 21.75 33.87 199.95 145.57 154.49"/><polygon class="cls-6" points="228.96 21.75 105.07 170.07 33.87 199.95 228.96 21.75"/><polygon class="cls-6" points="500.51 76.28 228.96 21.75 444.72 84.07 500.51 76.28"/><polygon class="cls-6" points="217.86 126.57 228.96 21.75 350.04 96.96 217.86 126.57"/><polygon class="cls-7" points="32.65 227.04 33.87 199.95 105.07 170.07 105.04 203.14 32.65 227.04"/><polygon class="cls-8" points="117.79 200.75 105.07 170.07 217.86 126.57 216.2 163.51 117.79 200.75"/><polygon class="cls-7" points="225.55 163.36 217.86 126.57 350.04 96.96 356.96 132.8 225.55 163.36"/><polygon class="cls-8" points="364.93 133.16 350.04 96.96 444.72 84.07 465.15 111.31 364.93 133.16"/><polygon class="cls-7" points="477.67 111.88 444.72 84.07 500.51 76.28 519.06 104.53 477.67 111.88"/><path class="cls-5" d="M226.24,23a2.21,2.21,0,0,0,2.68,1.61l1.2-.3a2.22,2.22,0,0,0,1.61-2.68h0A2.21,2.21,0,0,0,229.05,20l-1.2.3A2.21,2.21,0,0,0,226.24,23Z"/><polygon class="cls-9" points="605.22 473.18 333.56 589.51 302.57 589.31 598.11 458.73 605.22 473.18"/><polygon class="cls-10" points="608.7 458.8 598.11 458.73 605.22 473.18 619.19 473.27 608.7 458.8"/><polygon class="cls-11" points="333.56 589.51 605.22 473.18 619.19 473.27 348.94 589.61 333.56 589.51"/><path class="cls-10" d="M282,275.08l12.1.08L492.79,511.53l83.49,98.38-11.65-1.16L483,514.32l.14-.06Z"/><polygon class="cls-9" points="282.03 275.08 564.63 608.75 544.31 606.74 273.13 283.9 282.03 275.08"/><path class="cls-12" d="M290.25,291.12c-.66.77-34.92,12.08-71.75,19-38.56,7.23-79.75,10.06-79.75,10.06s28.65,99.41,91,161.32S294.17,560.77,334.65,553s143.91-24.85,143.91-24.85-58.89-23-102-70.12S290.25,291.12,290.25,291.12Z"/><path class="cls-6" d="M334.65,553c-2.38.45-4.65.81-6.84,1.09q-6.46-7.07-12.69-14.32a287.9,287.9,0,0,0,30,11.27C341.29,551.77,337.77,552.43,334.65,553Z"/><path class="cls-12" d="M327.81,554.12a59.86,59.86,0,0,1-20.49-.5c-11.46-11.14-22.86-22.49-33.56-34.83-1.46-1.58-2.87-3.18-4.29-4.78a267.72,267.72,0,0,0,45.65,25.79Q321.34,547.06,327.81,554.12Z"/><path class="cls-8" d="M248.82,435.76c-17.3-39-29.51-82.16-42.88-123.26a4.92,4.92,0,0,0-1.07.12c-10.48,1-22.74,4.05-31.59,4.77,4.45,15.48,6,31.3,9.39,47.64,4,13.67,11,25,15.83,36.47q4.47,9.33,9.1,18.44c17.1,33.69,36.26,65.14,61.87,94.07a267.72,267.72,0,0,0,45.65,25.79C288.19,508.41,264.78,474.21,248.82,435.76ZM195.57,350.5a36.45,36.45,0,0,0,1.17,3.53A28.06,28.06,0,0,1,195.57,350.5Z"/><path class="cls-6" d="M376.57,458.06c-22.21-24.3-44.44-67.86-60.78-104.4-15.38-34.38-25.54-62.54-25.54-62.54-.36.41-24.63,8.87-24.63,8.87,3.42,13.51,7.77,29.41,12.61,45.3,5,16.51,10.58,33,16.2,46.83C309.22,428.67,330,460.54,357.09,492c16.7,19.73,36.66,34.66,58.33,46.76,33.65-5.72,63.14-10.6,63.14-10.6S419.67,505.21,376.57,458.06Z"/><path class="cls-6" d="M205.94,312.5c13.37,41.1,25.58,84.3,42.88,123.26,16,38.45,39.37,72.65,66.3,104a287.9,287.9,0,0,0,30,11.27c5.85-1.07,12.39-2.25,19.38-3.48-63.72-66.23-114.21-151-133.86-240.79C227.83,307.15,215.43,311.72,205.94,312.5Z"/><path class="cls-6" d="M273.76,518.79c-1.46-1.58-2.87-3.18-4.29-4.78-25.61-28.93-44.77-60.38-61.87-94.07q-4.64-9.12-9.1-18.44C193.62,390,186.64,378.7,182.67,365c-3.42-16.34-4.94-32.16-9.39-47.64-20.13,1.63-34.53,2.77-34.53,2.77s37.35,109.12,97.94,178.26c42.76,48.8,47.77,50.28,70.63,55.2C295.86,542.48,284.46,531.13,273.76,518.79Z"/><path class="cls-8" d="M357.09,492c-27.07-31.47-47.87-63.34-62.66-99.89-6.29-15.47-11-31.32-15.12-47.2-3.12-11.95-10.69-33.1-13.69-44.93-4.25,2.47-18.89,5.17-30.64,6.18-1.22.1-3.13.52-4.37.63,19.65,89.79,70.14,174.56,133.86,240.79,15.87-2.81,33.94-5.92,50.95-8.82C393.75,526.67,373.79,511.74,357.09,492Z"/><path class="cls-11" d="M396.4,621.1,378.29,621l-66.43-79.26c8.77-3.83,4.33-1.89,13.11-5.62Z"/><path class="cls-10" d="M126.31,299.73,325,536.1c-8.78,3.73,0-.1-8.78,3.73l-202-240.18Z"/><polygon class="cls-9" points="114.21 299.65 384.31 621.02 366.73 620.9 101.58 305.47 114.21 299.65"/><path class="cls-13" d="M285.79,444.53c-52.4-1.79-96.91,6.26-107-7.67s-8.62-82.34-8.62-82.34l14.36,4.75s6.63,59.41,10.5,64.34,77,2,77.34-.58S285.79,444.53,285.79,444.53Z"/><path class="cls-14" d="M173.94,363.67c9,1.65,14.06-4.31,15.63-12.73s-1.51-15.4-10.4-16.95-13.47,4-15,12.25S164.92,362,173.94,363.67Z"/><path class="cls-13" d="M373.24,401c13.73-47.49,39.27-79.3,29.3-96.64s-59-44.1-59-44.1l.19,15.59s38.26,28.47,41.71,34.88-25.8,66.65-28.26,65.4S373.24,401,373.24,401Z"/><path class="cls-15" d="M404.16,509.6l-57.39,28.59c-12.1,6-22.07,4-38.43-13.53,3-17.55,59.56-57,77-65.69,18.16-9.05,22.64-2.63,31.35,17C422.09,488.47,416.49,503.46,404.16,509.6Z"/><path class="cls-13" d="M308.34,524.66a4,4,0,0,1-.44-.78L267.52,441c-5.76-11.89-.33-27.3,12.13-34.45l57.64-33c12.48-7.15,27.3-3.3,33.09,8.59.09-.76,48.06,92.83,47.53,97.73-17.33,13-18.79,14.82-37,25.27C363.32,515.12,331.38,524.91,308.34,524.66Z"/><path class="cls-16" d="M384.13,503.19c-.25.15-.51.28-.76.42L332.11,398.47l3.39-1.94.53,1.07,50.4,104.23Z"/><path d="M323.27,407.78c-2.87-5.89-.18-13.55,6-17.09s13.54-1.64,16.41,4.25.18,13.55-6,17.1-13.53,1.64-16.41-4.25Z"/><polyline class="cls-16" points="332.24 396.27 322.41 420.1 270.99 416.38"/><polyline class="cls-16" points="332.24 396.27 352.72 402.73 356.13 365.44"/><path class="cls-16" d="M322.68,435.51l7.11,14.43c5,10.09-.19,12.57-6.37,16.09l-.28.11c-6.19,3.52-11,6.72-16-3.37l-7.1-14.44Z"/><path class="cls-16" d="M375.1,424.43l-7.2-14.79,12.44-7.12,12.05,24.75-1,.56-.28.11C385,431.54,380.14,434.77,375.1,424.43Z"/><path d="M342.46,446.44c8.94,18.35,21.05,30.4,27.06,27s3.64-21.11-5.3-39.46-21.05-30.4-27.06-27S333.52,428.09,342.46,446.44Z"/><path class="cls-17" d="M312.38,281.42l11.84,27.09-27.79,12.1-11.9-27.27Z"/><path class="cls-18" d="M215.78,236.33c-2-1.22-4.22-2.62-6.73-4.22-20.73-13.29-.52-14.31,18.3-9.69,13,3.16,24.69,11.06,24.69,11.06l-1,.58c.33.12.66.22,1,.33,0,0-10.64,39.6-56.37,49.79C161.49,291.83,182.57,250.4,215.78,236.33Z"/><path class="cls-18" d="M188.39,371.9c26.93,42.66,84.38,55.8,126.84,30S370.81,320.11,344.54,277s-81.94-57.1-124.38-31.23S153.47,316.55,188.39,371.9Z"/><path class="cls-19" d="M348.12,270.64c3.2-8.6-1.78-14.59-9.8-17.62s-15.42-1.2-18.51,7.28,1.55,14,9.44,16.95S344.92,279.24,348.12,270.64Z"/><path class="cls-14" d="M212.45,383.41c22.63,37.16,71.4,51.22,114.17,25.17s59.09-77.25,36.48-114.38-96-79.58-138.76-53.54S189.83,346.28,212.45,383.41Z"/><path class="cls-18" d="M322.9,254.2a11.37,11.37,0,0,0-1.5-1.36,20.09,20.09,0,0,0-4.56-2.57,23.44,23.44,0,0,0-11.63-1.45,22.64,22.64,0,0,0-4.45,1.11,20.26,20.26,0,0,0-4.18,2,19.86,19.86,0,0,0-3.47,2.86,12.64,12.64,0,0,0-1.39,1.62,15.82,15.82,0,0,0-1.15,1.66,21.83,21.83,0,0,0-1.59,3.26,18.28,18.28,0,0,0-.75,2.91,14.59,14.59,0,0,0-.25,2.29,17.92,17.92,0,0,0,.09,2.07s.61-.47,1.52-1.29c.43-.42,1-.87,1.62-1.41s1.31-1.08,2-1.7a24.23,24.23,0,0,1,2.32-1.75c.4-.29.82-.57,1.25-.85s.83-.55,1.3-.81a27.93,27.93,0,0,1,2.76-1.46,27,27,0,0,1,2.94-1.19c1-.4,2.05-.68,3.09-1s2.12-.55,3.2-.78c2.13-.46,4.25-.79,6.15-1.1l4.77-.74Z"/><path class="cls-18" d="M246.59,289.82a11.45,11.45,0,0,0-1.84-.87,19.7,19.7,0,0,0-5.09-1.1,23.15,23.15,0,0,0-11.55,2,22.76,22.76,0,0,0-4,2.33,21.8,21.8,0,0,0-3.4,3.18,19.6,19.6,0,0,0-2.5,3.75,12.55,12.55,0,0,0-.86,1.95,14.32,14.32,0,0,0-.62,1.92,20.71,20.71,0,0,0-.58,3.58,18.9,18.9,0,0,0,.11,3,14.41,14.41,0,0,0,.42,2.27,18.85,18.85,0,0,0,.65,1.92s.46-.63,1.09-1.67c.29-.53.73-1.13,1.14-1.82s.93-1.43,1.42-2.2a26.06,26.06,0,0,1,1.73-2.35c.29-.4.61-.78.94-1.17s.66-.78,1-1.16a30.62,30.62,0,0,1,2.22-2.19,30.09,30.09,0,0,1,2.45-2c.84-.66,1.76-1.24,2.67-1.84s1.87-1.15,2.83-1.66c1.91-1.07,3.85-2,5.57-2.84l4.36-2.08Z"/><path d="M283.17,325.86a6.84,6.84,0,0,0,3.07-4.14c2.89-11.06,11.9-9.6,13.64-9.18A6.86,6.86,0,0,0,303,299.17h0c-9.5-2.19-25.32,1.11-30,19.1a6.83,6.83,0,0,0,10.21,7.59Z"/><circle class="cls-20" cx="257.72" cy="349.03" r="33.79"/><rect class="cls-5" x="260.4" y="310.31" width="13.72" height="64.87" transform="translate(-139.29 189.05) rotate(-31.35)"/><rect class="cls-5" x="255.79" y="316.15" width="3.75" height="64.87" transform="translate(-143.72 184.91) rotate(-31.35)"/><circle class="cls-20" cx="337.58" cy="299.9" r="33.79"/><rect class="cls-5" x="340.32" y="261.64" width="13.72" height="64.87" transform="translate(-102.3 223.52) rotate(-31.35)"/><rect class="cls-5" x="335.7" y="267.47" width="3.75" height="64.87" transform="translate(-106.74 219.38) rotate(-31.35)"/><path d="M224.61,369.2h0a38.77,38.77,0,1,1,53.29,12.94A38.78,38.78,0,0,1,224.61,369.2Zm18.13-44.78a28.8,28.8,0,1,0,39.58,9.64,28.86,28.86,0,0,0-39.58-9.64Z"/><path d="M304.51,320.53h0a38.77,38.77,0,1,1,53.29,12.94A38.78,38.78,0,0,1,304.51,320.53ZM313,315.3l0,0a28.79,28.79,0,1,0,9.6-39.57A28.8,28.8,0,0,0,313.05,315.33Z"/><path class="cls-18" d="M223.14,239.93c39.47-24,55.15-8,82.7,5.44-6.64-2.58-15.35-1.51-21.92,2.48l-82,50a23.54,23.54,0,0,0-10.78,15.11C192.28,283.1,184.7,263.34,223.14,239.93Z"/><circle class="cls-14" cx="201.5" cy="388.62" r="21.11"/><circle class="cls-21" cx="205.34" cy="387.74" r="11.23" transform="translate(-130.42 105.31) rotate(-22.03)"/><path class="cls-22" d="M290.49,348.46c5.05,8.3,14.68,11.64,23,6.59h0A17.49,17.49,0,0,0,319.29,331l0-.06-4.07-6.67a17.49,17.49,0,0,0-24-5.94l-.05,0h0c-8.29,5.05-9.74,15.14-4.69,23.43Z"/><path class="cls-23" d="M287,342.75c4.86,8,14.7,11.13,22.68,6.27l.56-.34a17.12,17.12,0,0,0,5.53-23.45l-5-8.19a16.93,16.93,0,0,0-23.26-5.65l-.55.34c-8,4.86-9.78,14.83-5,22.83Z"/><path d="M336,364.38a2.71,2.71,0,0,0-4.87-2.37,29.59,29.59,0,0,1-26.44,16.72,2.71,2.71,0,0,0,.06,5.41A35,35,0,0,0,336,364.38Z"/><path class="cls-24" d="M322.79,311.57a14.16,14.16,0,0,0,20.74-14.93"/><path class="cls-24" d="M253.94,355.41a14.16,14.16,0,0,0,20.73-14.93"/><path class="cls-15" d="M506.81,535.8c4.79-5,9.44-10.14,14.25-15.12-58.76-77.21-113.76-46.62-178.92.58-.55,7.32-2.26,14.33-1.82,21.7C402.64,512.67,451.8,449.35,506.81,535.8Z"/><path class="cls-15" d="M554.92,502.36c3.07-6.4,5.69-13,8.35-19.59-56.34-24.82-91.79-19.41-148.73.14-.53,7.85,1,15.37,1.44,23.18C477.38,477.41,492.58,477.1,554.92,502.36Z"/><path class="cls-25" d="M598.54,475.49S525.25,519,467.21,537s-170,24.73-170,24.73l115.85-66Z"/><path class="cls-26" d="M542.13,484l56.41-8.51s-73.33,45.3-128,61.41C496.23,522.9,522.67,502.13,542.13,484Z"/><path class="cls-25" d="M488.5,495,538.63,488a335.84,335.84,0,0,1-68.14,48.95c-2.7.79-5.36,1.53-8,2.19-5.61,1.43-11.72,2.8-18.18,4.1A221.29,221.29,0,0,0,488.5,495Z"/><path class="cls-26" d="M449.1,500.54,488.5,495a221.29,221.29,0,0,1-44.17,48.19c-14,2.83-29.67,5.35-45.32,7.56C420.94,538.08,440.06,520.29,449.1,500.54Z"/><path class="cls-26" d="M374.42,543.5a182.13,182.13,0,0,1-28.82,13.75c-25.69,2.7-44.27,4.12-44.27,4.12L418.84,506A198.19,198.19,0,0,1,374.42,543.5Z"/><path class="cls-27" d="M374.42,543.5A198.19,198.19,0,0,0,418.84,506l3.65-1.72,26.61-3.74c-9,19.75-28.16,37.54-50.09,50.21-18.72,2.64-37.44,4.81-53.41,6.5A182.13,182.13,0,0,0,374.42,543.5Z"/><path class="cls-28" d="M591.28,466.91l7.26,8.58-58.12,12.94a82.17,82.17,0,0,0-5.08-11.68Z"/><path class="cls-29" d="M535.34,476.75a82.17,82.17,0,0,1,5.08,11.68l-53.18,10.19c-1.21-4.39-2.49-8.76-3.67-13.14Z"/><path class="cls-30" d="M418.13,496.51l23.48-4A81.45,81.45,0,0,0,445,506.71l-21,4Z"/><path class="cls-28" d="M441.61,492.55l42-7.07c1.18,4.38,2.46,8.75,3.67,13.14L445,506.71A81.45,81.45,0,0,1,441.61,492.55Z"/><polygon class="cls-28" points="391.39 501.25 391.8 515.76 425.58 510.48 418.13 496.51 391.39 501.25"/><polygon class="cls-9" points="419.99 503.13 148.34 619.47 112.3 619.23 413.21 489.34 419.99 503.13"/><polygon class="cls-10" points="424.85 489 413.02 489.34 419.8 503.13 433.77 503.23 424.85 489"/><polygon class="cls-11" points="148.34 619.47 419.99 503.13 433.96 503.23 163.71 619.57 148.34 619.47"/><path class="cls-15" d="M554.57,503c-3.79-17.46,2.24-25.79,14.49-37.63s20-17.58,37.62-15.79C589.54,467.52,572.84,486.19,554.57,503Z"/><path class="cls-15" d="M554.92,502.36c3.07-6.4,5.69-13,8.35-19.59-56.34-24.82-91.79-19.41-148.73.14-.53,7.85,54.44.42,75.44,1.1C507.72,484.59,526.38,490.79,554.92,502.36Z"/><path class="cls-15" d="M506.35,536.34c2.25-21.29,7.7-23,26.38-29.68s24.12-9.05,42.79-1.17C552.71,516.48,529.84,527,506.35,536.34Z"/><path class="cls-15" d="M506.81,535.8c4.79-5,9.44-10.14,14.25-15.12-32.56-42.79-64-52.47-96.6-44.56,4.21,5.82,5.22,5.37,19.48,16C464.76,491.13,485.34,502.06,506.81,535.8Z"/></g></svg>