<svg xmlns="http://www.w3.org/2000/svg" viewBox="0 0 655 655"><defs><style>.cls-1{isolation:isolate;}.cls-2,.cls-3{fill:#303031;}.cls-3,.cls-6{mix-blend-mode:multiply;}.cls-3{opacity:0.5;}.cls-4{fill:#1d1d1d;}.cls-5,.cls-6{fill:#a7a9ac;}.cls-7{fill:#454545;}.cls-8{fill:#131313;}.cls-9{fill:#5f5f61;}.cls-10{fill:#fff;}.cls-11{fill:#0f0f0f;}.cls-12{fill:#202021;}.cls-13{fill:#38b8bc;}.cls-14{fill:#83cec9;}.cls-15{fill:#309da1;}.cls-16{fill:#5b0c1d;}.cls-17{fill:#161616;}.cls-18{fill:#ca2030;}.cls-19{fill:#c1c3e7;}.cls-20{fill:#543428;}.cls-21{fill:#f0d1b9;}.cls-22{fill:#fdddc3;}.cls-23{fill:#bbcbd3;}.cls-24{fill:#f7bea8;}.cls-25{fill:#f28054;}.cls-26{fill:#f5a07f;}.cls-27{fill:none;stroke:#19161f;stroke-linecap:round;stroke-linejoin:round;stroke-width:5.87px;}.cls-28{fill:#ffbe85;}.cls-29{fill:#a3c27a;}.cls-30{fill:#eb8023;}.cls-31{fill:#85babc;}</style></defs><g class="cls-1"><g id="Layer_8" data-name="Layer 8"><g id="Side"><path class="cls-2" d="M382.39,464.74h80.22s.43,1.92.95,4.28a3.37,3.37,0,0,1-3.44,4.28H395.71a3.39,3.39,0,0,0-3.46,4.3l13.55,61.17H392.21l-15-67.58A5.08,5.08,0,0,1,382.39,464.74Z"/><path class="cls-3" d="M401.39,538.77,387.85,477.6a3.39,3.39,0,0,1,3.45-4.3h4.41a3.39,3.39,0,0,0-3.46,4.3l13.55,61.17Z"/><path class="cls-4" d="M382.39,465.84h80.22a1.1,1.1,0,0,0,0-2.2H382.39a1.1,1.1,0,0,0,0,2.2Z"/><rect class="cls-5" x="361.24" y="547.75" width="8.94" height="66.74"/><rect class="cls-6" x="365.71" y="547.75" width="4.47" height="66.74"/><path class="cls-7" d="M370.19,580a1.58,1.58,0,0,1,2.12-1.61L453.44,601a3.1,3.1,0,0,1,2.12,2.8v29.27a2.21,2.21,0,0,1-2.2,2.2h-2.45a2.21,2.21,0,0,1-2.2-2.2V611.89a2.44,2.44,0,0,0-2.2-2.38l-74.13-6a2.44,2.44,0,0,1-2.19-2.38Z"/><path class="cls-8" d="M455.56,633.05v-3a8.87,8.87,0,0,0-6.85-5.29v8.33a2.21,2.21,0,0,0,2.2,2.2h2.45A2.21,2.21,0,0,0,455.56,633.05Z"/><path class="cls-9" d="M447.39,625.93a8.89,8.89,0,1,0,8.88,8.88A8.89,8.89,0,0,0,447.39,625.93Z"/><circle class="cls-10" cx="447.39" cy="634.81" r="5.98" transform="translate(-1.99 1.41) rotate(-0.18)"/><path class="cls-7" d="M361.24,580a1.58,1.58,0,0,0-2.12-1.61L278,601a3.08,3.08,0,0,0-2.12,2.8v29.27a2.21,2.21,0,0,0,2.2,2.2h2.45a2.21,2.21,0,0,0,2.2-2.2V611.89a2.44,2.44,0,0,1,2.2-2.38l74.13-6a2.44,2.44,0,0,0,2.19-2.38Z"/><path class="cls-8" d="M275.88,633.2a2.2,2.2,0,0,0,2.19,2h2.45a2.21,2.21,0,0,0,2.2-2.2v-8.2A8.89,8.89,0,0,0,275.88,633.2Z"/><path class="cls-9" d="M284.75,625.93a8.89,8.89,0,1,0,8.88,8.88A8.89,8.89,0,0,0,284.75,625.93Z"/><circle class="cls-10" cx="284.75" cy="634.81" r="5.98" transform="translate(-350.97 917.54) rotate(-89.82)"/><path class="cls-9" d="M348.07,550.29l49.28,23.35c2.67-.41,6.74-.79,9,.26,3.55,1.64,5.49,5,4.31,7.57s-5,3.26-8.56,1.62c-2.3-1.06-4.69-4.49-6.1-6.79l-54.87-26Z"/><rect class="cls-6" x="361.24" y="565.57" width="8.94" height="3.45"/><rect class="cls-4" x="356.24" y="569.23" width="18.95" height="39.15" rx="2.2"/><rect class="cls-4" x="341.33" y="541.04" width="48.77" height="24.53" rx="4.41"/><rect class="cls-11" x="341.33" y="550.29" width="48.57" height="4.19"/><path class="cls-9" d="M320.53,602.66a4.35,4.35,0,0,0-1.89,3.35v27a2.22,2.22,0,0,0,2.21,2.2h2.85a2.22,2.22,0,0,0,2.21-2.2V613.92a2.93,2.93,0,0,1,2.14-2.71l31.05-7.32a2.93,2.93,0,0,0,2.14-2.71V580c0-1.21-.84-1.69-1.88-1.05Z"/><path class="cls-12" d="M318.64,632.3v.75a2.22,2.22,0,0,0,2.21,2.2h2.85a2.22,2.22,0,0,0,2.21-2.2v-8.3A8.89,8.89,0,0,0,318.64,632.3Z"/><path class="cls-9" d="M327.44,625.93a8.89,8.89,0,1,0,8.88,8.88A8.88,8.88,0,0,0,327.44,625.93Z"/><circle class="cls-10" cx="327.44" cy="634.81" r="5.98"/><path class="cls-9" d="M410.9,602.66a4.34,4.34,0,0,1,1.88,3.35v27a2.21,2.21,0,0,1-2.2,2.2h-2.85a2.21,2.21,0,0,1-2.21-2.2V613.92a2.93,2.93,0,0,0-2.14-2.71l-31.05-7.32a2.93,2.93,0,0,1-2.14-2.71V580c0-1.21.84-1.69,1.88-1.05Z"/><path class="cls-12" d="M405.52,624.76v8.29a2.21,2.21,0,0,0,2.21,2.2h2.85a2.2,2.2,0,0,0,2.19-2A8.88,8.88,0,0,0,405.52,624.76Z"/><path class="cls-9" d="M403.9,625.93a8.89,8.89,0,1,0,8.88,8.88A8.89,8.89,0,0,0,403.9,625.93Z"/><circle class="cls-10" cx="403.9" cy="634.81" r="5.98" transform="translate(-2.24 1.43) rotate(-0.2)"/><path class="cls-9" d="M299.91,535.94c0,5.09,0,18.51,17.45,18.51h97.43c17.44,0,17.44-13.42,17.44-18.51Z"/><path class="cls-2" d="M365.94,541c-28.53,0-53.14,2-64.47,4.77,1.92,4.54,6.23,8.64,15.89,8.64h97.43c9.61,0,13.92-4.07,15.86-8.58C419.42,543,394.67,541,365.94,541Z"/><path class="cls-13" d="M270.71,360c17,0,37.9,13.55,46.51,30.11l70.61,135.73c3.69,7.1,12.66,12.91,19.93,12.91h-96.9c-7.28,0-16.25-5.81-19.94-12.91L220.31,390.13C211.7,373.57,218.53,360,235.49,360Z"/><path class="cls-14" d="M279.52,360c17,0,37.9,13.55,46.52,30.11l70.6,135.73c3.7,7.1,12.67,12.91,19.94,12.91H319.67c-7.27,0-16.24-5.81-19.94-12.91l-70.6-135.73c-8.62-16.56-1.79-30.11,15.18-30.11Z"/><path class="cls-13" d="M328.61,395.08c-8.18-.36-16.32-.56-24.43-.69-4.06-.08-8.11-.09-12.16-.14l-12.13-.05-12.1.05c-4,0-8.05.06-12.07.14-8,.13-16.05.32-24,.69,8.19.37,16.32.56,24.43.69,4.07.08,8.11.1,12.16.14l12.13,0,12.1,0c4-.05,8.05-.06,12.07-.15C312.62,395.64,320.64,395.44,328.61,395.08Z"/><path class="cls-13" d="M347.75,431.87c-8.19-.37-16.32-.56-24.43-.69-4.07-.08-8.11-.1-12.16-.14L299,431l-12.1,0c-4,.05-8.06.07-12.07.15-8,.13-16.06.32-24,.69,8.18.36,16.32.56,24.43.69,4.06.08,8.11.09,12.16.14l12.13.05,12.09-.05c4-.05,8.06-.07,12.07-.15C331.76,432.42,339.78,432.23,347.75,431.87Z"/><path class="cls-15" d="M288.83,511.31,295,523.08c4.49,8.63,15.4,15.69,24.23,15.69H491L485.92,527c-4.49-8.63-15.39-15.69-24.23-15.69Z"/><path class="cls-13" d="M372.09,517.29c-44.71,0-81.75-2.67-82.74-6H451.26C452.25,514.62,416.8,517.29,372.09,517.29Z"/><path class="cls-2" d="M309.45,538.77h-2.2c-1.21,0-2.35-.64-2.52-1.41l-.31-1.42h-9.19l.63,2.83.37,2.27H437.32v-2.27Z"/></g><path class="cls-16" d="M373.43,401.18c13.73-47.49,39.27-79.3,29.3-96.64s-59-44.1-59-44.1L344,276s38.26,28.47,41.71,34.88-25.8,66.65-28.26,65.4S373.43,401.18,373.43,401.18Z"/><path class="cls-17" d="M404.35,509.78,347,538.37c-12.1,6-22.07,4-38.43-13.53,3-17.55,59.56-57,77-65.69,18.16-9,22.64-2.63,31.35,17C422.28,488.65,416.68,503.64,404.35,509.78Z"/><path class="cls-16" d="M308.53,524.84a4,4,0,0,1-.44-.78l-40.38-82.91c-5.76-11.89-.33-27.3,12.13-34.45l57.64-33c12.48-7.15,27.3-3.3,33.09,8.59.09-.76,48.06,92.83,47.53,97.73-17.33,13-18.79,14.82-37,25.27C363.51,515.3,331.57,525.09,308.53,524.84Z"/><path class="cls-18" d="M384.32,503.37c-.25.15-.51.28-.76.42L332.3,398.65l3.39-1.94.53,1.07L386.62,502Z"/><path d="M323.46,408c-2.87-5.89-.18-13.55,6-17.1s13.54-1.63,16.41,4.26.18,13.55-6,17.1-13.53,1.64-16.41-4.25Z"/><polyline class="cls-18" points="332.43 396.45 322.6 420.28 271.18 416.56"/><polyline class="cls-18" points="332.43 396.45 352.91 402.91 356.32 365.62"/><path class="cls-18" d="M322.87,435.69,330,450.12c5,10.09-.19,12.57-6.37,16.09l-.28.11c-6.19,3.52-11,6.72-16-3.37l-7.1-14.44Z"/><path class="cls-18" d="M375.29,424.61l-7.2-14.79,12.44-7.12,12.05,24.75-1,.56-.28.11C385.16,431.72,380.33,435,375.29,424.61Z"/><path d="M342.65,446.62c8.94,18.35,21.05,30.4,27.06,27s3.64-21.11-5.3-39.46-21.05-30.4-27.06-27S333.71,428.27,342.65,446.62Z"/><path class="cls-19" d="M312.57,281.6l11.84,27.09-27.79,12.1-11.9-27.27Z"/><path class="cls-20" d="M216,236.51c-2-1.22-4.22-2.62-6.73-4.22-20.73-13.29-.52-14.31,18.3-9.69,13,3.16,24.69,11.06,24.69,11.06l-1,.58c.33.12.66.22,1,.33,0,0-10.64,39.6-56.37,49.79C161.68,292,182.76,250.58,216,236.51Z"/><path class="cls-20" d="M188.58,372.07c26.93,42.67,84.38,55.81,126.84,30S371,320.29,344.73,277.2,262.79,220.1,220.35,246,153.66,316.73,188.58,372.07Z"/><path class="cls-21" d="M348.31,270.82c3.2-8.6-1.78-14.59-9.8-17.62S323.09,252,320,260.48s1.55,14,9.44,16.95S345.11,279.42,348.31,270.82Z"/><path class="cls-22" d="M212.64,383.59c22.63,37.16,71.4,51.21,114.17,25.17s59.09-77.25,36.48-114.38-96-79.58-138.76-53.54S190,346.46,212.64,383.59Z"/><path class="cls-20" d="M323.09,254.38a11.37,11.37,0,0,0-1.5-1.36,20.09,20.09,0,0,0-4.56-2.57A23.44,23.44,0,0,0,305.4,249a22.64,22.64,0,0,0-4.45,1.11,20.74,20.74,0,0,0-4.18,2A20.37,20.37,0,0,0,293.3,255a12.64,12.64,0,0,0-1.39,1.62,15.82,15.82,0,0,0-1.15,1.66,21.83,21.83,0,0,0-1.59,3.26,18.28,18.28,0,0,0-.75,2.91,14.59,14.59,0,0,0-.25,2.29,17.92,17.92,0,0,0,.09,2.07s.61-.47,1.52-1.29c.43-.42,1-.87,1.62-1.41s1.31-1.08,2-1.7a24.23,24.23,0,0,1,2.32-1.75c.4-.29.82-.57,1.25-.85s.83-.55,1.3-.81a27.93,27.93,0,0,1,2.76-1.46,27,27,0,0,1,2.94-1.19c1-.4,2-.68,3.09-1s2.12-.55,3.2-.78c2.13-.46,4.25-.79,6.15-1.1l4.77-.74Z"/><path class="cls-20" d="M246.78,290a10.66,10.66,0,0,0-1.84-.87,19.7,19.7,0,0,0-5.09-1.1,23.15,23.15,0,0,0-11.55,2,22.76,22.76,0,0,0-4,2.33,21.8,21.8,0,0,0-3.4,3.18,19.6,19.6,0,0,0-2.5,3.75,12.55,12.55,0,0,0-.86,1.95,14.32,14.32,0,0,0-.62,1.92,20.56,20.56,0,0,0-.58,3.58,18.9,18.9,0,0,0,.11,3,14.41,14.41,0,0,0,.42,2.27,18.85,18.85,0,0,0,.65,1.92s.46-.63,1.09-1.68c.29-.52.73-1.12,1.14-1.81s.93-1.43,1.42-2.2a24.72,24.72,0,0,1,1.73-2.35c.29-.4.61-.78.94-1.17s.66-.78,1-1.16a30.62,30.62,0,0,1,2.22-2.19,30.09,30.09,0,0,1,2.45-2c.84-.66,1.76-1.24,2.67-1.84s1.87-1.15,2.83-1.66c1.91-1.07,3.85-2,5.57-2.84l4.36-2.08Z"/><path d="M283.36,326a6.79,6.79,0,0,0,3.07-4.13c2.89-11.06,11.9-9.6,13.64-9.18a6.86,6.86,0,0,0,3.08-13.37h0c-9.5-2.19-25.32,1.11-30,19.1A6.82,6.82,0,0,0,283.36,326Z"/><circle class="cls-23" cx="257.91" cy="349.21" r="33.79"/><rect class="cls-10" x="260.59" y="310.49" width="13.72" height="64.87" transform="translate(-139.35 189.18) rotate(-31.35)"/><rect class="cls-10" x="255.98" y="316.33" width="3.75" height="64.87" transform="translate(-143.79 185.04) rotate(-31.35)"/><circle class="cls-23" cx="337.77" cy="300.08" r="33.79"/><rect class="cls-10" x="340.51" y="261.82" width="13.72" height="64.87" transform="translate(-102.37 223.65) rotate(-31.35)"/><rect class="cls-10" x="335.89" y="267.65" width="3.75" height="64.87" transform="translate(-106.8 219.5) rotate(-31.35)"/><path d="M224.8,369.38h0a38.77,38.77,0,1,1,53.29,12.94A38.78,38.78,0,0,1,224.8,369.38Zm18.13-44.78a28.8,28.8,0,1,0,39.58,9.64,28.85,28.85,0,0,0-39.58-9.64Z"/><path d="M304.7,320.71h0A38.77,38.77,0,1,1,358,333.65,38.78,38.78,0,0,1,304.7,320.71Zm8.52-5.23,0,0a28.79,28.79,0,1,0,9.6-39.57A28.8,28.8,0,0,0,313.24,315.51Z"/><path class="cls-20" d="M223.33,240.11c39.47-24,55.15-8,82.7,5.43-6.64-2.57-15.35-1.5-21.92,2.49l-82,50a23.54,23.54,0,0,0-10.78,15.11C192.47,283.28,184.89,263.52,223.33,240.11Z"/><circle class="cls-22" cx="201.69" cy="388.8" r="21.11"/><circle class="cls-24" cx="205.53" cy="387.92" r="11.23" transform="translate(-130.48 105.39) rotate(-22.03)"/><path class="cls-25" d="M290.68,348.64c5.05,8.3,14.68,11.64,23,6.59h0a17.49,17.49,0,0,0,5.83-24.05l0-.06-4.07-6.67a17.49,17.49,0,0,0-24-5.94l-.05,0h0c-8.29,5-9.74,15.14-4.69,23.43Z"/><path class="cls-26" d="M287.2,342.93c4.86,8,14.7,11.13,22.68,6.27l.56-.34A17.12,17.12,0,0,0,316,325.41l-5-8.19a16.93,16.93,0,0,0-23.26-5.65l-.55.34c-8,4.86-9.78,14.83-5,22.83Z"/><polyline class="cls-27" points="338.7 292.54 327.58 308.6 346.76 304.89"/><polyline class="cls-27" points="255.17 343.22 274.37 339.62 263.16 355.61"/><path d="M301,384.73a2.7,2.7,0,0,0,4.88,2.33,29.59,29.59,0,0,1,26.33-16.88,2.71,2.71,0,1,0-.09-5.41A35,35,0,0,0,301,384.73Z"/><path class="cls-17" d="M458,574.55c13.71-8.86,26.91-5.84,40.81.87s26,13.42,28.91,29.41C504.37,594.89,481,585.15,458,574.55Z"/><path class="cls-17" d="M458.67,574.61c7.24.38,14.48.87,21.71,1.33,6.82-73.12-9.52-71.06-71.9-85.66-4.29,6.58-5,13.77-8.76,20.67C457.78,516.33,468.32,510,458.67,574.61Z"/><path class="cls-17" d="M396.05,616.06c12.76-12.29,23-11.09,38.77-5.75s27.31,8.62,33.45,25.32C444.09,629.42,420.11,622.59,396.05,616.06Z"/><path class="cls-17" d="M396.75,616c6.87-.91,13.78-1.61,20.68-2.26,11.7-75.66-1.32-83-70.71-92.75-5.52,6.33-11.27,12-16.2,18.84C398.37,547.08,415,535.82,396.75,616Z"/><path class="cls-16" d="M286,444.71c-52.4-1.79-96.91,6.26-107-7.67s-8.62-82.34-8.62-82.34l14.36,4.75s6.63,59.41,10.5,64.34,77,2,77.34-.59S286,444.71,286,444.71Z"/><path class="cls-22" d="M174.13,363.85c9,1.65,14.06-4.31,15.63-12.73s-1.51-15.4-10.4-16.95-13.47,4-15,12.25S165.11,362.2,174.13,363.85Z"/><path class="cls-2" d="M286,464.74h80.22l1,4.28a3.38,3.38,0,0,1-3.45,4.28H299.36a3.39,3.39,0,0,0-3.46,4.3l13.55,61.17H295.86l-15-67.58A5.08,5.08,0,0,1,286,464.74Z"/><path class="cls-3" d="M305,538.77,291.5,477.6a3.39,3.39,0,0,1,3.45-4.3h4.41a3.39,3.39,0,0,0-3.46,4.3l13.55,61.17Z"/><path class="cls-4" d="M286,465.84h80.22a1.1,1.1,0,0,0,0-2.2H286a1.1,1.1,0,0,0,0,2.2Z"/><path class="cls-28" d="M267.84,74.75c5.39-5.79,8.43-14.92,2.67-21.56-3.35-3.87-8.83-5.77-13.11-2.15-3.13,2.64-4.85,7-5.79,10.9-1.53-4.44-3.67-8.22-7.81-10.52-6.64-3.67-15.81-.94-15.74,7.67.11,12.72,13,22.23,23.65,26.61,2,.81,13.3-8,15.79-10.59Z"/><path class="cls-29" d="M492.27,304.71c-3.18-1.67-6.45-2.51-9.27-.92a6.53,6.53,0,0,0-3.11,7.75c1.1,4.27,2.28,7.28,3.29,10.7.91,3.13-10.94-8.64-16.27-12.65a15.45,15.45,0,0,0-5.17-2.92,5.29,5.29,0,0,0-5.46,1.43c-1.17,1.5-1.09,3.59-1,5.49q.42,5.7.82,11.41a124.51,124.51,0,0,1-15.95-12.15A13.94,13.94,0,0,1,443,308a104,104,0,0,0-15.68-1A53.57,53.57,0,0,0,431,322.82l3.72-4.14a262.65,262.65,0,0,0,23.07,16.79c4.47,2.91,7.66.18,7.56-4.43-.14-5.79-.58-7.71-.56-11.86.57,0,3.61,2.92,4.06,3.27,8.26,6.22,8.61,7.74,17.9,13.47,4.95,3,9.21.72,7.15-6.31s-5.18-16.72-1.54-13.44c10.18,9.14,13.73,13.95,18.65,18.31.56.49,8.81-7.31,9.8-8,.07-.05-16.37-13.58-18.56-15C499.59,309.76,496,306.67,492.27,304.71Z"/><path class="cls-10" d="M270.33,134.26c18.31,9.94,30.8,18.71,45.68,30.25,5.13-11.92,10.35-24,18.2-34.29s18.77-18.76,31-20.57c-5.29-12.09-27.69-36.7-33.93-42.22A53.43,53.43,0,0,0,307,75.1C286.36,88.25,274.84,109.3,270.33,134.26Z"/><path class="cls-30" d="M315.75,149.1a1.75,1.75,0,0,0,1.29-.57,1.73,1.73,0,0,0-.12-2.44c-11.77-10.69-22.77-17.77-35.68-23a1.73,1.73,0,0,0-1.29,3.21c12.51,5,23.19,11.92,34.64,22.31A1.73,1.73,0,0,0,315.75,149.1Z"/><path class="cls-30" d="M319.63,139.14a1.73,1.73,0,0,0,1.08-3.09c-1.25-1-2.47-2-3.68-3C307,125,298.26,118,285.29,112.75A1.74,1.74,0,0,0,284,116c12.49,5,21,11.9,30.87,19.83l3.69,3A1.7,1.7,0,0,0,319.63,139.14Z"/><path class="cls-30" d="M324.22,130.37a1.72,1.72,0,0,0,1.21-.49,1.74,1.74,0,0,0,0-2.45c-10-10.31-20.55-17.41-35.41-23.74a1.73,1.73,0,0,0-1.36,3.19c14.41,6.13,24.66,13,34.28,23A1.73,1.73,0,0,0,324.22,130.37Z"/><path class="cls-30" d="M330.43,123.35a1.73,1.73,0,0,0,1.23-2.95c-11.61-11.71-21.72-19.35-33.82-25.56a1.74,1.74,0,0,0-1.58,3.09c11.75,6,21.6,13.47,32.94,24.91A1.73,1.73,0,0,0,330.43,123.35Z"/><path class="cls-30" d="M337.68,115.93a1.74,1.74,0,0,0,1.32-2.86c-3.93-4.62-19.67-19.27-32.36-26.71a1.73,1.73,0,1,0-1.75,3c12.16,7.13,27.77,21.62,31.47,26A1.73,1.73,0,0,0,337.68,115.93Z"/><path class="cls-30" d="M345.67,110.24a1.7,1.7,0,0,0,1.05-.35,1.73,1.73,0,0,0,.32-2.43c-9.18-12-17.34-21.41-27.3-28.64a1.74,1.74,0,0,0-2,2.81c9.63,7,17.6,16.22,26.6,27.94A1.72,1.72,0,0,0,345.67,110.24Z"/><path class="cls-31" d="M197.63,158.88c-25-4.36-41-40.4-22.46-60.38A35.5,35.5,0,0,1,215,90.29c19.48,8.51,25,34.69,15,52.4C223.71,153.93,210.54,161.14,197.63,158.88Z"/><path class="cls-10" d="M198.52,148.77c-18-3.14-29.51-29.09-16.17-43.48A25.57,25.57,0,0,1,211,99.38c14,6.13,18,25,10.82,37.73C217.3,145.2,207.81,150.39,198.52,148.77Z"/><path class="cls-30" d="M186.71,116.77a1.78,1.78,0,0,1-.14.5,1.75,1.75,0,0,1-2.33.87l-4.45-2a1.76,1.76,0,0,1,1.45-3.2l4.46,2A1.74,1.74,0,0,1,186.71,116.77Z"/><path class="cls-30" d="M197.89,141a1.86,1.86,0,0,1-.23.66l-1.88,3.2a1.75,1.75,0,1,1-3-1.77l1.88-3.21a1.76,1.76,0,0,1,3.26,1.12Z"/><path class="cls-30" d="M222.33,130.71v0a1.75,1.75,0,0,1-2,1.46,13,13,0,0,1-4.37-1.43,1.76,1.76,0,1,1,1.55-3.15,9.64,9.64,0,0,0,3.37,1.11A1.76,1.76,0,0,1,222.33,130.71Z"/><path class="cls-30" d="M213.24,103.26a1.75,1.75,0,0,1-.23.65l-1.75,3a1.76,1.76,0,0,1-3-1.77l1.76-3a1.76,1.76,0,0,1,3.26,1.11Z"/><path class="cls-30" d="M203.47,121.37a1.73,1.73,0,0,1-.73,1.21,1.75,1.75,0,0,1-2.45-.43l-11.37-16.23a1.75,1.75,0,1,1,2.87-2l11.38,16.23A1.75,1.75,0,0,1,203.47,121.37Z"/><path class="cls-28" d="M220.11,119.11a1.75,1.75,0,0,1-1.51,1.51,102.46,102.46,0,0,0-16.07,3.47,1.75,1.75,0,1,1-1-3.36,104.58,104.58,0,0,1,16.61-3.59,1.76,1.76,0,0,1,2,2Z"/><path class="cls-28" d="M206,122.52a4,4,0,0,1-.25,1,4.35,4.35,0,0,1-5.62,2.51,4.37,4.37,0,0,1-2.51-5.63,4.35,4.35,0,0,1,8.38,2.12Zm-5.15-.67a.9.9,0,0,0,.07.45.78.78,0,0,0,.47.44.84.84,0,0,0,.64,0,.88.88,0,0,0,.44-.47.83.83,0,0,0-.48-1.08.84.84,0,0,0-1.09.48A1.8,1.8,0,0,0,200.87,121.85Zm1.77-2.32Z"/><path class="cls-10" d="M472.66,197.19c15.14,14.73,38,42.78,38.09,45.82.06,2.34-14.9,1.42-34.93,17.8-9.89,8.09-17.61,17.7-18.84,29.8-10.55-7.93-40.42-30.88-42.07-31.89s-3.29-5.22,4.6-20.79C431.3,214.67,465.64,190.35,472.66,197.19Z"/><path class="cls-31" d="M449,217.23a1.57,1.57,0,0,1,1.44-1.42c3.3-.25,5.82-.38,8.26-.51s4.92-.27,8.19-.51a1.55,1.55,0,0,1,1.6,2c-.52,1.66-1.13,4.28-1.77,7.05-.29,1.24-.58,2.5-.87,3.7,5.05-1.28,9.37-2.17,14.65-3.26l.95-.2a1.59,1.59,0,0,1,1.43.44,1.56,1.56,0,0,1,.4,1.44c-.42,1.87-1.42,4.85-2.38,7.72-.63,1.87-1.27,3.77-1.73,5.32,2.42-.36,4.87-.66,7.26-1,2.68-.32,5.2-.63,7.62-1a1.56,1.56,0,0,1,.48,3.09c-2.47.38-5,.69-7.72,1-3.14.38-6.39.78-9.5,1.3a1.57,1.57,0,0,1-1.78-1.85,79.94,79.94,0,0,1,2.41-7.91c.58-1.74,1.18-3.52,1.64-5-5.38,1.12-9.89,2.08-15.49,3.57a1.56,1.56,0,0,1-1.91-1.91c.49-1.83,1-4,1.5-6.17.42-1.84.83-3.6,1.22-5.1-2.27.15-11,.62-14.23.86a1.55,1.55,0,0,1-1.67-1.43A1.13,1.13,0,0,1,449,217.23Z"/><path class="cls-31" d="M490.65,235.88a1.9,1.9,0,0,1,.1-.46,1.72,1.72,0,0,1,2.21-1L497,236a1.71,1.71,0,0,1,.76,2.63s-2,2.64-2.26,3c-.49.62-1.29,1.64-2.56,1a1.73,1.73,0,0,1-.37-2.82c.19-.22.6-.75,1.08-1.38l-1.94-.74A1.7,1.7,0,0,1,490.65,235.88Z"/><path class="cls-30" d="M438.93,223.1a1.52,1.52,0,0,1,.27-.75,1.56,1.56,0,0,1,2.18-.38,105.73,105.73,0,0,1,16.05,13.83,1.56,1.56,0,0,1-2.26,2.15,103.29,103.29,0,0,0-15.58-13.43A1.54,1.54,0,0,1,438.93,223.1Z"/><path class="cls-30" d="M433.82,229a1.6,1.6,0,0,1,.4-.91,1.57,1.57,0,0,1,2.21-.11l2.33,2.13a138.13,138.13,0,0,0,13.54,11.32,1.56,1.56,0,1,1-1.82,2.53,138.42,138.42,0,0,1-13.82-11.55l-2.33-2.11A1.58,1.58,0,0,1,433.82,229Z"/><path class="cls-30" d="M429.27,235.24a1.56,1.56,0,0,1,2.66-1,103.17,103.17,0,0,0,15.2,13,1.56,1.56,0,1,1-1.77,2.57,105.57,105.57,0,0,1-15.64-13.39A1.56,1.56,0,0,1,429.27,235.24Z"/><path class="cls-30" d="M425.08,242.32a1.54,1.54,0,0,1,.43-.95,1.56,1.56,0,0,1,2.2,0,93.14,93.14,0,0,0,13.15,10.3l2,1.39a1.56,1.56,0,1,1-1.77,2.56l-2-1.38a96.2,96.2,0,0,1-13.54-10.62A1.57,1.57,0,0,1,425.08,242.32Z"/><path class="cls-30" d="M420.42,251.13a1.53,1.53,0,0,1,.28-.76,1.57,1.57,0,0,1,2.18-.38c3.1,2.2,12.86,9.07,16,11.27a1.56,1.56,0,0,1-1.8,2.54c-3.1-2.2-12.86-9.06-16-11.26A1.55,1.55,0,0,1,420.42,251.13Z"/><path class="cls-31" d="M462,243.2a2.29,2.29,0,0,1,1.23-.91,2.36,2.36,0,0,1,1.86.92l6.56,6.37c.86.83,1.79,1.85,1.64,3a3.9,3.9,0,0,1-1.56,2.25l-3.94,3.49a3.23,3.23,0,0,1-5,.25q-2.75-1.94-5.44-3.94a4.15,4.15,0,0,1-1.85-2.21C454.9,249.81,460.5,245,462,243.2Z"/><path class="cls-28" d="M448.75,272c-2.59-1.79-4.29-4.8-3.26-8.24a7.5,7.5,0,0,1,6.49-5.18,8.36,8.36,0,0,1,6.91,3,4.78,4.78,0,0,1,.64.8,8,8,0,0,1,1.34,4.29,6.67,6.67,0,0,1-.39,2.68C458.54,274.65,452.64,274.66,448.75,272Z"/><path class="cls-31" d="M460.87,266.63a50.41,50.41,0,0,0-8.38.59,70.38,70.38,0,0,0,6.4-5.68,4.78,4.78,0,0,1,.64.8A8,8,0,0,1,460.87,266.63Z"/><path class="cls-30" d="M446.9,217.59l1.49-1.17A164.38,164.38,0,0,1,468.25,203a1.56,1.56,0,1,1,1.55,2.7,163.39,163.39,0,0,0-18,12c10.13,8.8,20.1,18,29.65,27.41a1.56,1.56,0,0,1-2.18,2.22c-10-9.79-20.37-19.39-30.95-28.51Z"/><path class="cls-28" d="M139.64,146.79c-5.82,4.13-24.09,14.49-36.95,25.25-7.41,6.19-6.39,14.2.94,26.71,3,5.16,14.54,27.4,19.83,35.3L125,255c.39-.55,14.32-17.8,14.32-17.8,11.19-7.85,35.61-23.46,42.28-29.39,8.44-7.51.1-21.31-.77-22.81C163.25,154.76,154.12,136.51,139.64,146.79Z"/><path class="cls-30" d="M168.15,197.37a2.47,2.47,0,0,1-.59,1c-7.64,7.81-21,15.22-30.8,20.63l-2,1.13a2.43,2.43,0,1,1-2.36-4.25l2-1.13c9.51-5.27,22.54-12.48,29.68-19.78a2.43,2.43,0,0,1,4.07,2.39Z"/><path class="cls-30" d="M159.9,185.36a2.61,2.61,0,0,1-.59,1c-8.33,8.54-21.1,17-31.29,23.4a2.43,2.43,0,0,1-2.59-4.12c10-6.26,22.43-14.5,30.4-22.68a2.43,2.43,0,0,1,4.07,2.39Z"/><path class="cls-30" d="M152.62,176.05a2.37,2.37,0,0,1-.68,1.09c-7.52,7-22.52,18.11-30.88,22.88a2.43,2.43,0,1,1-2.41-4.22c8-4.55,22.81-15.55,30-22.22a2.44,2.44,0,0,1,4,2.47Z"/><path class="cls-10" d="M148.49,167.05A7,7,0,1,1,146,157c3.17,1.73,3.95,5.91,2.93,9.37Z"/><path class="cls-29" d="M463.82,363.55c-2.9-2.16-27.83-18-30.17-19.38-1.86-1.08-3.35.78-4.14,1.62-5.7,6-20,23.55-21.72,25.44-1.46,1.62-1.4,3.36.06,5.28,5.7,7.5,19.59,18.78,24.12,22.26,1.56,1.2,2.46,2,5.76-1,7.38-6.71,21.95-22.68,26.69-30C465.39,366.25,465.68,364.93,463.82,363.55Z"/><path class="cls-10" d="M431.89,358.08c.95.38,4.85-4,4.09-4.67s-3.24-2.67-3.9-3.24-5.34,4.86-4.39,5.34S430.93,357.7,431.89,358.08Z"/><path class="cls-10" d="M455.07,372.47c1,.38,2.66-2.4,1.89-3.06s-17.82-12.46-18.49-13-3.13,3.25-2.17,3.73S454.12,372.09,455.07,372.47Z"/><path class="cls-10" d="M447.87,379.89c.95.38,2.65-2.39,1.89-3.06s-17.83-12.45-18.49-13-3.13,3.26-2.18,3.73S446.91,379.51,447.87,379.89Z"/><path class="cls-10" d="M440.28,387.56c1,.38,2.65-2.4,1.89-3.06s-17.82-12.46-18.49-13-3.13,3.25-2.18,3.73S439.33,387.18,440.28,387.56Z"/><path class="cls-10" d="M424.68,365.47c.95.38,4.86-4,4.09-4.67s-3.23-2.67-3.9-3.24-5.34,4.86-4.38,5.34S423.73,365.09,424.68,365.47Z"/><path class="cls-10" d="M417.72,373.15c.95.38,4.86-4,4.1-4.67s-3.24-2.67-3.91-3.24-5.33,4.86-4.38,5.34S416.77,372.77,417.72,373.15Z"/><path class="cls-29" d="M152.15,289c-3.35-3.81-17.57-15.64-17.57-15.64s-1.05,8-1.55,7.08-27.58-6.23-27.58-6.23l-4.23,16.35,29.67,5.08-.49,6.89S154.23,291.36,152.15,289Z"/><path class="cls-31" d="M478.89,154.44,481,166.11c-1.55.11-51.38,7.23-50.3,6.88S478.89,154.44,478.89,154.44Z"/><path class="cls-10" d="M495.59,153.74l-10.91-8.15-6.82,2.58-1.74-9L467.76,133c-1.56,1.3-35.23,35.39-39.79,40.85C425.54,176.69,494.52,154.09,495.59,153.74Z"/><polygon class="cls-31" points="443.53 164.28 476.1 139.09 477.86 147.15 484.61 145.68 443.53 164.28"/><path class="cls-28" d="M391.32,121.6a5.06,5.06,0,0,1,3.33-6.34l8.24-2.56-2.61-8.41a4.88,4.88,0,0,1,3.21-6.12,5.07,5.07,0,0,1,6.35,3.33l2.56,8.24,8.24-2.56a5.06,5.06,0,0,1,6.34,3.33,4.9,4.9,0,0,1-3.22,6.13l-8.4,2.61,2.61,8.41a4.89,4.89,0,0,1-3.22,6.12,5.06,5.06,0,0,1-6.34-3.34l-2.56-8.23-8.41,2.61A4.89,4.89,0,0,1,391.32,121.6Z"/><path class="cls-31" d="M362.36,224.24c-13.47-4.08-23.82-16.92-20.18-32.68,4.42-19.14,18.84-27.63,32.59-24.63s26.7,14.5,23.48,34C394.82,221.83,378.39,229.11,362.36,224.24Z"/><path class="cls-10" d="M373.07,175.35c-3.05-3.16-12.57-1.93-15.86,4.63-3.41,6.8-.19,26.27,7.07,33s14.86,5.62,17.23,4.77-.6-15.8-2.94-16.16-5.06,4.31-7.81,3.52-6.12-16.05-5.48-17.15c1.8-3.09,7.11,4.49,9.06,3.61S377,179.42,373.07,175.35Z"/><path class="cls-31" d="M142.87,354.36c2.59-3.13-18.16-33.7-20.53-33.66S92.39,338,90.67,339s16.77,34.56,19.49,34.31S142.05,355.35,142.87,354.36Z"/><path class="cls-10" d="M122.9,330.15c2.17,3,15,21.46,13.69,22s-23.6,14.36-24.7,14.69S98.12,345.26,98,344.6,122.9,330.15,122.9,330.15Z"/><path class="cls-30" d="M121.93,326.12a1.55,1.55,0,0,0-.06-1.21l-.48-1a1.53,1.53,0,0,0-.7-.72l-2.86-4.07a1.56,1.56,0,0,0-2.56,1.8l3.91,5.56a1.56,1.56,0,0,0,2.75-.37Z"/><path class="cls-30" d="M116.24,329.81a1.55,1.55,0,0,0-.15-1.35l-3.65-5.86a1.57,1.57,0,0,0-2.66,1.65l3.66,5.86a1.55,1.55,0,0,0,2.15.5A1.59,1.59,0,0,0,116.24,329.81Z"/><path class="cls-30" d="M110.08,332.22a1.6,1.6,0,0,0-.15-1.36l-3-4.82a1.57,1.57,0,0,0-2.66,1.65l3,4.83a1.56,1.56,0,0,0,2.15.5A1.59,1.59,0,0,0,110.08,332.22Z"/><path class="cls-30" d="M105.62,336.44a1.56,1.56,0,0,0-.19-1.41l-3.93-5.7a1.57,1.57,0,0,0-2.58,1.78l3.94,5.7a1.55,1.55,0,0,0,2.17.39A1.57,1.57,0,0,0,105.62,336.44Z"/><path class="cls-30" d="M99.13,340a1.57,1.57,0,0,0-.15-1.36l-3.44-5.51a1.56,1.56,0,1,0-2.65,1.65l3.44,5.52a1.56,1.56,0,0,0,2.15.5A1.54,1.54,0,0,0,99.13,340Z"/><path class="cls-29" d="M96.31,112a8.38,8.38,0,0,1,5.44-10.84,7.73,7.73,0,0,1,5.84.49c3.26,1.78,5.56,6.75,4.65,10.36-1.44,5.71-8.49,6.79-12.91,3.8A7.79,7.79,0,0,1,96.31,112Zm5.62-.53c1.51,1.67,3.82,2.36,4.26,0s-1.34-8.22-4.54-5.33C99.89,107.78,100.6,110,101.93,111.51Zm14.27,20.64a13.59,13.59,0,0,1-4.34-.05c.83-7.08,3.36-28.21,3.94-31.64.32-1.92.45-1.75,2.29-1.67s2.13-.22,2.13,1.71c0,4.67-1,9.5-1.55,14.11-.49,4-.92,8-1.48,12C117,127.69,117.08,131.3,116.2,132.15Zm4.11-8.62a8,8,0,0,1-.36-3.69c1-7.83,11.83-10,15.71-3.14a8.5,8.5,0,0,1-.11,8.83C131.57,131.7,122.39,129.56,120.31,123.53Zm6-.7c1.86,2,5,2.63,5-1.34,0-2-2.52-5.86-4.81-4.21S124.89,121.28,126.34,122.83Z"/><path class="cls-29" d="M254.8,194.48c4.34,6.7,27.48,15.83,27.48,15.83s1.13-24.84-3.21-31.54a14.46,14.46,0,1,0-24.27,15.71Z"/><circle class="cls-10" cx="266.92" cy="186.6" r="6.65" transform="translate(-39.46 297.04) rotate(-54.78)"/><path class="cls-28" d="M47.33,338.09c1.53,4,13.32,30.4,14.71,33s15.16-3.47,15-8.5c0-1.26-8.54-14.85-10.44-19-.41-.9,3.46-1.76,1.32-4-1.49-1.56-7.77-8.81-9.62-8.25C55.76,332.14,46.62,336.25,47.33,338.09Z"/><path class="cls-28" d="M49.56,331.14c5-.92,8.42-7.21,6.3-12.46-2.29-5.65-9.1-5.68-13.34-2.21-4.8,3.94-2.91,11,2.15,13.79A7.28,7.28,0,0,0,49.56,331.14Z"/><path class="cls-31" d="M73.42,263.38l9.09,2.54c-.42,1.82-20.5,23.52-24.12,22.79-5.16-1-12.62-31.46-12.62-31.46l8.4,1.89,3.41-25.82L81.73,239Z"/><path class="cls-28" d="M38.76,285.79a3.73,3.73,0,0,0-.2.56,2.85,2.85,0,0,0,2.08,3.44c.21,0,21.33,5.25,34.31,7.64a2.84,2.84,0,0,0,1-5.59c-12.81-2.35-33.76-7.51-34-7.56A2.84,2.84,0,0,0,38.76,285.79Z"/><path class="cls-28" d="M128.61,390.49c6.29-1.84,6.47-12.3,13.94-12.73,8.91-.52,15.36,9.21,9.9,18.49-1.45,2.47-5.53,4.91-6.23,4s-3.71-7.71-2.64-8c4.28-1,4-6.93-.27-6.49-3.54.37-4.5,4.3-6.21,6.72a11.3,11.3,0,0,1-6.45,4.46C129.58,397.23,127.92,390.69,128.61,390.49Zm-5.3,1c3.91.63,4.91,7.51.77,8.57C117.71,401.73,117,390.5,123.31,391.53Z"/><path class="cls-28" d="M120.45,341.45c-8.63-2.32-11.7,4.84-10.78,9.6s8.69,7.91,13.66,3.35A7.56,7.56,0,0,0,120.45,341.45Z"/></g></g></svg>